<svg xmlns="http://www.w3.org/2000/svg" fill="none" aria-hidden="true" aria-label="Lovable" role="img" viewBox="0 0 23 24"><mask id="lovable-mask" width="23" height="24" x="0" y="0" maskUnits="userSpaceOnUse" style="mask-type:alpha"><path fill="url(#lovable-gradient)" fill-rule="evenodd" d="M6.89785 0C10.7074 0 13.7957 3.17898 13.7957 7.10046V9.79908H16.0913C19.9009 9.79908 22.9892 12.9781 22.9892 16.8995C22.9892 20.821 19.9009 24 16.0913 24H0V7.10046C0 3.17898 3.08827 0 6.89785 0Z" clip-rule="evenodd"/></mask><g mask="url(#lovable-mask)"><g filter="url(#lovable-filter0)"><ellipse cx="10.084" cy="12.811" fill="#4B73FF" rx="15.562" ry="15.977"/></g><g filter="url(#lovable-filter1)"><ellipse cx="11.794" cy="4.043" fill="#FF66F4" rx="19.931" ry="15.977"/></g><g filter="url(#lovable-filter2)"><ellipse cx="15.045" cy="1.037" fill="#FF0105" rx="15.562" ry="14.031"/></g><g filter="url(#lovable-filter3)"><ellipse cx="12.071" cy="4.039" fill="#FE7B02" rx="9.359" ry="9.608"/></g></g><defs><filter id="lovable-filter0" width="45.444" height="46.274" x="-12.638" y="-10.326" color-interpolation-filters="sRGB" filterUnits="userSpaceOnUse"><feFlood flood-opacity="0" result="BackgroundImageFix"/><feBlend in="SourceGraphic" in2="BackgroundImageFix" mode="normal" result="shape"/><feGaussianBlur result="effect1_foregroundBlur" stdDeviation="3.58"/></filter><filter id="lovable-filter1" width="54.181" height="46.274" x="-15.297" y="-19.094" color-interpolation-filters="sRGB" filterUnits="userSpaceOnUse"><feFlood flood-opacity="0" result="BackgroundImageFix"/><feBlend in="SourceGraphic" in2="BackgroundImageFix" mode="normal" result="shape"/><feGaussianBlur result="effect1_foregroundBlur" stdDeviation="3.58"/></filter><filter id="lovable-filter2" width="45.444" height="42.383" x="-7.677" y="-20.154" color-interpolation-filters="sRGB" filterUnits="userSpaceOnUse"><feFlood flood-opacity="0" result="BackgroundImageFix"/><feBlend in="SourceGraphic" in2="BackgroundImageFix" mode="normal" result="shape"/><feGaussianBlur result="effect1_foregroundBlur" stdDeviation="3.58"/></filter><filter id="lovable-filter3" width="33.038" height="33.538" x="-4.448" y="-12.73" color-interpolation-filters="sRGB" filterUnits="userSpaceOnUse"><feFlood flood-opacity="0" result="BackgroundImageFix"/><feBlend in="SourceGraphic" in2="BackgroundImageFix" mode="normal" result="shape"/><feGaussianBlur result="effect1_foregroundBlur" stdDeviation="3.58"/></filter><linearGradient id="lovable-gradient" x1="7.736" x2="15.072" y1="4.218" y2="23.867" gradientUnits="userSpaceOnUse"><stop offset=".025" stop-color="#FF8E63"/><stop offset=".56" stop-color="#FF7EB0"/><stop offset=".95" stop-color="#4B73FF"/></linearGradient></defs></svg>